<?xml version="1.0" standalone="no"?>
<!DOCTYPE svg PUBLIC "-//W3C//DTD SVG 20010904//EN"
 "http://www.w3.org/TR/2001/REC-SVG-20010904/DTD/svg10.dtd">
<svg version="1.0" xmlns="http://www.w3.org/2000/svg"
 width="1099.000000pt" height="1280.000000pt" viewBox="0 0 1099.000000 1280.000000"
 preserveAspectRatio="xMidYMid meet">
<g transform="translate(0.000000,1280.000000) scale(0.100000,-0.100000)"
fill="#ffffff" stroke="white" stroke-width="30" >
<path d="M5130 12789 c-63 -4 -232 -12 -375 -19 -1199 -53 -2358 -249 -3235
-548 -251 -86 -242 -82 -237 -101 2 -9 194 -296 426 -638 231 -342 429 -636
440 -655 18 -31 20 -73 31 -598 6 -311 13 -575 16 -588 5 -25 9 -27 230 -117
902 -368 1791 -588 2714 -672 245 -22 933 -25 1170 -5 936 79 1762 299 2625
700 l150 69 -3 139 c-1 76 -7 332 -13 568 l-10 429 25 21 c23 20 875 1308 879
1330 3 13 -261 110 -478 176 -865 262 -1904 429 -3015 485 -162 8 -380 19
-485 25 -213 11 -679 11 -855 -1z"/>
<path d="M2200 8895 c0 -408 6 -525 36 -720 149 -976 723 -1845 1567 -2374
545 -341 1151 -514 1802 -515 312 0 551 28 838 100 1226 307 2186 1273 2487
2504 34 140 64 318 82 480 14 121 18 923 5 936 -3 4 -75 -25 -159 -64 -1068
-491 -2140 -720 -3273 -699 -323 6 -452 15 -745 48 -810 91 -1686 323 -2512
664 l-128 53 0 -413z"/>
<path d="M4640 4998 c0 -7 120 -313 267 -681 l267 -667 316 2 315 3 268 668
c147 367 265 672 262 678 -4 5 -331 9 -851 9 -667 0 -844 -3 -844 -12z"/>
<path d="M6954 2945 c-678 -1260 -824 -1522 -824 -1480 0 3 -76 464 -170 1025
-93 561 -170 1022 -170 1025 0 3 -141 5 -314 5 l-314 0 -6 -27 c-3 -16 -78
-464 -167 -998 -89 -533 -165 -974 -169 -979 -5 -4 -19 9 -33 30 -14 22 -365
674 -782 1449 -416 776 -761 1414 -765 1418 -4 5 -628 -267 -1386 -603 -758
-337 -1486 -659 -1617 -717 l-237 -105 0 -1494 0 -1494 2813 5 c1546 3 4019 7
5495 10 l2682 5 0 1488 0 1487 -1613 714 c-886 393 -1615 716 -1618 718 -4 1
-366 -665 -805 -1482z"/>
</g>
</svg>
